<?xml version="1.0" encoding="utf-8"?>
<!-- Generator: Adobe Illustrator 23.0.3, SVG Export Plug-In . SVG Version: 6.00 Build 0)  -->
<svg version="1.1" id="Layer_1" xmlns="http://www.w3.org/2000/svg" xmlns:xlink="http://www.w3.org/1999/xlink" x="0px" y="0px"
	 viewBox="0 0 330 330" style="enable-background:new 0 0 330 330;" xml:space="preserve">
<style type="text/css">
	.st0{fill:#F1F1D3;}
</style>
<g id="XMLID_169_">
	<path id="XMLID_197_" d="M165,278.8l139.4-139.4c5.9-5.9,15.4-5.9,21.2,0c5.9,5.9,5.9,15.4,0,21.2l-150,150
		c-2.8,2.8-6.6,4.4-10.6,4.4C165,306,165,278.8,165,278.8z"/>
	<path d="M165,195c4,0,7.8-1.6,10.6-4.4l150-150c5.8-5.9,5.8-15.4,0-21.2c-5.9-5.9-15.4-5.9-21.2,0L165,158.8
		C165,158.8,165,185.5,165,195z"/>
</g>
<g id="XMLID_1_">
	<path id="XMLID_2_" d="M-151.6,53.4L-291,192.8L-430.4,53.4c-5.9-5.9-15.4-5.9-21.2,0c-5.9,5.9-5.9,15.4,0,21.2l150,150
		c2.8,2.8,6.6,4.4,10.6,4.4s7.8-1.6,10.6-4.4l150-150c5.9-5.9,5.9-15.4,0-21.2C-136.3,47.5-145.7,47.5-151.6,53.4z"/>
	<path d="M-130.4-45.4l-150,150c-2.8,2.8-6.6,4.4-10.6,4.4c-4,0-7.8-1.6-10.6-4.4l-150-150c-5.8-5.9-5.8-15.4,0-21.2
		c5.9-5.9,15.4-5.9,21.2,0L-291,72.8l139.4-139.4c5.9-5.9,15.4-5.9,21.2,0C-124.5-60.8-124.5-51.3-130.4-45.4z"/>
</g>
<g id="XMLID_3_">
	<path id="XMLID_4_" class="st0" d="M165,278.8L25.6,139.4c-5.9-5.9-15.4-5.9-21.2,0c-5.9,5.9-5.9,15.4,0,21.2l150,150
		c2.8,2.8,6.6,4.4,10.6,4.4C165,306,165,278.8,165,278.8z"/>
	<path class="st0" d="M165,195c-4,0-7.8-1.6-10.6-4.4l-150-150c-5.8-5.9-5.8-15.4,0-21.2c5.9-5.9,15.4-5.9,21.2,0L165,158.8
		C165,158.8,165,185.5,165,195z"/>
</g>
</svg>
